<?xml version="1.0" encoding="UTF-8" standalone="no"?>
<!-- Created with Inkscape (http://www.inkscape.org/) -->

<svg
   xmlns:dc="http://purl.org/dc/elements/1.1/"
   xmlns:cc="http://creativecommons.org/ns#"
   xmlns:rdf="http://www.w3.org/1999/02/22-rdf-syntax-ns#"
   xmlns:svg="http://www.w3.org/2000/svg"
   xmlns="http://www.w3.org/2000/svg"
   xmlns:sodipodi="http://sodipodi.sourceforge.net/DTD/sodipodi-0.dtd"
   xmlns:inkscape="http://www.inkscape.org/namespaces/inkscape"
   width="12mm"
   height="12mm"
   viewBox="0 0 12 12"
   version="1.1"
   id="svg1597"
   inkscape:version="0.92.3 (2405546, 2018-03-11)"
   sodipodi:docname="croix.svg">
  <defs
     id="defs1591" />
  <sodipodi:namedview
     id="base"
     pagecolor="#ffffff"
     bordercolor="#666666"
     borderopacity="1.0"
     inkscape:pageopacity="0.0"
     inkscape:pageshadow="2"
     inkscape:zoom="5.6"
     inkscape:cx="40.789856"
     inkscape:cy="0.64240573"
     inkscape:document-units="mm"
     inkscape:current-layer="layer1"
     showgrid="false"
     inkscape:window-width="1366"
     inkscape:window-height="719"
     inkscape:window-x="0"
     inkscape:window-y="25"
     inkscape:window-maximized="1" />
  <metadata
     id="metadata1594">
    <rdf:RDF>
      <cc:Work
         rdf:about="">
        <dc:format>image/svg+xml</dc:format>
        <dc:type
           rdf:resource="http://purl.org/dc/dcmitype/StillImage" />
        <dc:title></dc:title>
      </cc:Work>
    </rdf:RDF>
  </metadata>
  <g
     inkscape:label="Calque 1"
     inkscape:groupmode="layer"
     id="layer1"
     transform="translate(0,-285)">
    <g
       id="g4432-1-4"
       transform="matrix(0.11453196,0,0,0.11453196,0.55468161,285.45937)">
      <g
         id="g4392-3-5">
        <path
           id="path4394-3-7"
           d="m 82.154,14.096 c -18.793,-18.794 -49.266,-18.794 -68.059,0 -18.794,18.793 -18.794,49.266 0,68.059 18.793,18.794 49.266,18.794 68.059,0 18.795,-18.795 18.795,-49.266 0,-68.059 z m -3.138,52.002 c 0.597,0.597 0.597,1.562 0,2.159 L 68.259,79.015 c -0.597,0.597 -1.563,0.597 -2.16,0 L 48.125,61.041 30.152,79.015 c -0.597,0.597 -1.563,0.597 -2.16,0 L 17.235,68.257 c -0.597,-0.597 -0.597,-1.562 0,-2.159 L 35.208,48.125 17.235,30.151 c -0.597,-0.597 -0.597,-1.563 0,-2.16 L 27.992,17.234 c 0.597,-0.597 1.563,-0.597 2.16,0 L 48.125,35.207 66.098,17.234 c 0.597,-0.597 1.563,-0.597 2.16,0 l 10.757,10.757 c 0.597,0.597 0.597,1.563 0,2.16 L 61.043,48.125 Z"
           inkscape:connector-curvature="0" />
      </g>
      <g
         id="g4396-1-0" />
      <g
         id="g4398-5-7" />
      <g
         id="g4400-2-8" />
      <g
         id="g4402-6-9" />
      <g
         id="g4404-94-9" />
      <g
         id="g4406-4-3" />
      <g
         id="g4408-6-9" />
      <g
         id="g4410-0-4" />
      <g
         id="g4412-7-6" />
      <g
         id="g4414-4-4" />
      <g
         id="g4416-37-5" />
      <g
         id="g4418-9-5" />
      <g
         id="g4420-0-5" />
      <g
         id="g4422-0-6" />
      <g
         id="g4424-2-0" />
    </g>
  </g>
</svg>
